<?xml version="1.0" standalone="no"?>
<!DOCTYPE svg PUBLIC "-//W3C//DTD SVG 1.1 Tiny//EN" "http://www.w3.org/Graphics/SVG/1.1/DTD/svg11-tiny.dtd">
<svg version="1.1" baseProfile="tiny" xmlns="http://www.w3.org/2000/svg" xmlns:xlink="http://www.w3.org/1999/xlink" x="0px"
	 y="0px" width="48px" height="48px" viewBox="0 0 48 48" xml:space="preserve">

 <defs>
  <radialGradient id="RadialGradient" gradientUnits="userSpaceOnUse" cx="0" cy="0" r="30.69" gradientTransform="translate(18.277 2.52) rotate(90) scale(1 1.52854)">
   <stop offset="0" stop-color="#a7ffff"/>
   <stop offset="1" stop-color="#005d81"/>
  </radialGradient>
 </defs>
 <g id="Document" fill="none" stroke="black" transform="scale(1.33 -1.33)">
  <g id="Spread" transform="translate(0 -36)">
   <g id="icon">
    <path d="M 33.479,2.52 L 2.52,2.52 L 2.52,33.48 L 33.479,33.48 L 33.479,2.52 Z" stroke-linejoin="miter" stroke="none" stroke-width="1.258" marker-start="none" marker-end="none" stroke-miterlimit="79.8403193612775" fill="url(#RadialGradient)"/>
    <path d="M 1.478,3.769 L 1.478,32.185 C 1.478,33.449 2.504,34.475 3.769,34.475 L 32.185,34.475 C 33.449,34.475 34.475,33.449 34.475,32.185 L 34.475,3.769 C 34.475,2.504 33.449,1.478 32.185,1.478 L 3.769,1.478 C 2.504,1.478 1.478,2.504 1.478,3.769 Z M 11.971,5.117 L 11.971,9.838 C 11.971,11.016 11.015,11.971 9.838,11.971 L 5.116,11.971 C 3.939,11.971 2.984,11.016 2.984,9.838 L 2.984,5.117 C 2.984,3.94 3.939,2.985 5.116,2.985 L 9.838,2.985 C 11.015,2.985 11.971,3.94 11.971,5.117 Z M 22.493,5.117 L 22.493,9.838 C 22.493,11.016 21.537,11.971 20.36,11.971 L 15.64,11.971 C 14.462,11.971 13.507,11.016 13.507,9.838 L 13.507,5.117 C 13.507,3.94 14.462,2.985 15.64,2.985 L 20.36,2.985 C 21.537,2.985 22.493,3.94 22.493,5.117 Z M 32.97,5.117 L 32.97,9.838 C 32.97,11.016 32.014,11.971 30.837,11.971 L 26.115,11.971 C 24.938,11.971 23.984,11.016 23.984,9.838 L 23.984,5.117 C 23.984,3.94 24.938,2.985 26.115,2.985 L 30.837,2.985 C 32.014,2.985 32.97,3.94 32.97,5.117 Z M 3.846,5.553 L 3.846,9.403 C 3.846,10.344 4.611,11.108 5.552,11.108 L 9.403,11.108 C 10.344,11.108 11.108,10.344 11.108,9.403 L 11.108,5.553 C 11.108,4.611 10.344,3.847 9.403,3.847 L 5.552,3.847 C 4.611,3.847 3.846,4.611 3.846,5.553 Z M 11.971,15.593 L 11.971,20.314 C 11.971,21.492 11.015,22.447 9.838,22.447 L 5.116,22.447 C 3.939,22.447 2.984,21.492 2.984,20.314 L 2.984,15.593 C 2.984,14.416 3.939,13.461 5.116,13.461 L 9.838,13.461 C 11.015,13.461 11.971,14.416 11.971,15.593 Z M 22.493,15.639 L 22.493,20.36 C 22.493,21.538 21.537,22.493 20.36,22.493 L 15.64,22.493 C 14.462,22.493 13.507,21.538 13.507,20.36 L 13.507,15.639 C 13.507,14.462 14.462,13.507 15.64,13.507 L 20.36,13.507 C 21.537,13.507 22.493,14.462 22.493,15.639 Z M 32.97,15.639 L 32.97,20.36 C 32.97,21.538 32.014,22.493 30.837,22.493 L 26.115,22.493 C 24.938,22.493 23.984,21.538 23.984,20.36 L 23.984,15.639 C 23.984,14.462 24.938,13.507 26.115,13.507 L 30.837,13.507 C 32.014,13.507 32.97,14.462 32.97,15.639 Z M 14.369,16.075 L 14.369,19.925 C 14.369,20.866 15.134,21.631 16.075,21.631 L 19.924,21.631 C 20.866,21.631 21.63,20.866 21.63,19.925 L 21.63,16.075 C 21.63,15.134 20.866,14.369 19.924,14.369 L 16.075,14.369 C 15.134,14.369 14.369,15.134 14.369,16.075 Z M 24.845,16.075 L 24.845,19.925 C 24.845,20.866 25.61,21.631 26.551,21.631 L 30.401,21.631 C 31.343,21.631 32.107,20.866 32.107,19.925 L 32.107,16.075 C 32.107,15.134 31.343,14.369 30.401,14.369 L 26.551,14.369 C 25.61,14.369 24.845,15.134 24.845,16.075 Z M 11.971,26.115 L 11.971,30.837 C 11.971,32.014 11.015,32.969 9.838,32.969 L 5.116,32.969 C 3.939,32.969 2.984,32.014 2.984,30.837 L 2.984,26.115 C 2.984,24.938 3.939,23.983 5.116,23.983 L 9.838,23.983 C 11.015,23.983 11.971,24.938 11.971,26.115 Z M 22.493,26.115 L 22.493,30.837 C 22.493,32.014 21.537,32.969 20.36,32.969 L 15.64,32.969 C 14.462,32.969 13.507,32.014 13.507,30.837 L 13.507,26.115 C 13.507,24.938 14.462,23.983 15.64,23.983 L 20.36,23.983 C 21.537,23.983 22.493,24.938 22.493,26.115 Z M 32.97,26.115 L 32.97,30.837 C 32.97,32.014 32.014,32.969 30.837,32.969 L 26.115,32.969 C 24.938,32.969 23.984,32.014 23.984,30.837 L 23.984,26.115 C 23.984,24.938 24.938,23.983 26.115,23.983 L 30.837,23.983 C 32.014,23.983 32.97,24.938 32.97,26.115 Z M 14.369,26.551 L 14.369,30.401 C 14.369,31.342 15.134,32.107 16.075,32.107 L 19.924,32.107 C 20.866,32.107 21.63,31.342 21.63,30.401 L 21.63,26.551 C 21.63,25.61 20.866,24.845 19.924,24.845 L 16.075,24.845 C 15.134,24.845 14.369,25.61 14.369,26.551 Z" stroke-linejoin="miter" stroke-width="3" stroke="none" fill="#000000" marker-start="none" marker-end="none" stroke-miterlimit="79.8403193612775"/>
   </g>
  </g>
 </g>
</svg>
